<svg width="217" height="61" viewBox="0 0 217 61" fill="none" xmlns="http://www.w3.org/2000/svg">
<path d="M58.3934 54.0918L57.0917 53.7947C56.0022 53.5541 55.3655 53.3419 55.3655 52.7193C55.3655 52.3232 55.7758 52.1251 56.3559 52.1251C57.6725 52.1917 58.9155 52.7525 59.8366 53.6956L61.6618 51.3469C60.315 50.1007 58.5291 49.4393 56.6955 49.5075C54.2336 49.5075 52.3093 50.696 52.3093 52.9316C52.3093 55.1671 53.894 55.8746 55.79 56.2424L56.8936 56.4547C58.3085 56.7377 58.9169 57.0065 58.9169 57.5725C58.9169 58.1384 58.45 58.2092 57.6859 58.2092C56.9804 58.2084 56.2832 58.0565 55.6413 57.7636C54.9994 57.4707 54.4277 57.0437 53.9647 56.5113L52.1112 58.9025C52.8359 59.5726 53.6876 60.0906 54.616 60.426C55.5443 60.7614 56.5305 60.9073 57.5162 60.855C60.063 60.855 61.9731 59.7373 61.9731 57.4876C61.9731 55.5916 60.8553 54.6436 58.3934 54.0918Z" fill="white"/>
<path d="M72.811 52.2667H75.9946V60.6713H78.9659V52.2667H82.1494V49.6208H72.811V52.2667Z" fill="white"/>
<path d="M100.473 55.705C100.473 57.2755 99.8077 57.9547 98.4777 57.9547C97.1477 57.9547 96.4827 57.2755 96.4827 55.705V49.6208H93.5114V55.6767C93.5114 59.2705 95.2375 60.8411 98.4494 60.8411C101.661 60.8411 103.444 59.2705 103.444 55.6767V49.6208H100.473V55.705Z" fill="white"/>
<path d="M120.677 49.621H115.923V60.6714H120.734C121.459 60.6988 122.181 60.5735 122.855 60.3038C123.528 60.034 124.137 59.6258 124.643 59.1056C125.149 58.5853 125.539 57.9647 125.79 57.2838C126.04 56.603 126.144 55.8771 126.096 55.1533C126.138 54.4254 126.028 53.6969 125.772 53.0143C125.516 52.3317 125.12 51.71 124.61 51.1892C124.1 50.6684 123.486 50.2599 122.809 49.9899C122.132 49.7198 121.406 49.5942 120.677 49.621ZM120.564 58.0397H118.866V52.2669H120.508C122.234 52.2669 122.941 53.512 122.941 55.0967C122.941 56.6814 122.304 58.0397 120.564 58.0397Z" fill="white"/>
<path d="M141.024 49.6208H138.053V60.6713H141.024V49.6208Z" fill="white"/>
<path d="M158.64 49.4652C157.52 49.4652 156.426 49.7972 155.495 50.4191C154.565 51.0409 153.839 51.9249 153.411 52.959C152.982 53.9932 152.87 55.1312 153.089 56.229C153.307 57.3269 153.846 58.3353 154.638 59.1268C155.429 59.9184 156.438 60.4574 157.535 60.6758C158.633 60.8941 159.771 60.7821 160.805 60.3537C161.84 59.9253 162.724 59.1999 163.345 58.2692C163.967 57.3385 164.299 56.2442 164.299 55.1249C164.319 54.3763 164.186 53.6317 163.908 52.9362C163.631 52.2408 163.214 51.6091 162.685 51.0796C162.155 50.5501 161.524 50.134 160.828 49.8564C160.133 49.5789 159.388 49.4458 158.64 49.4652ZM158.64 57.9547C158.276 57.9714 157.913 57.9072 157.577 57.7667C157.241 57.6262 156.94 57.413 156.697 57.1423C156.453 56.8716 156.273 56.5503 156.168 56.2014C156.064 55.8526 156.038 55.4849 156.093 55.1249C156.067 54.7735 156.113 54.4205 156.23 54.088C156.346 53.7555 156.53 53.4505 156.77 53.1923C157.009 52.9341 157.3 52.7281 157.623 52.5872C157.946 52.4464 158.294 52.3737 158.647 52.3737C158.999 52.3737 159.348 52.4464 159.671 52.5872C159.993 52.7281 160.284 52.9341 160.524 53.1923C160.763 53.4505 160.947 53.7555 161.064 54.088C161.18 54.4205 161.227 54.7735 161.201 55.1249C161.248 55.4835 161.217 55.8483 161.109 56.1936C161.001 56.5388 160.818 56.8562 160.574 57.1233C160.33 57.3903 160.03 57.6006 159.696 57.7394C159.362 57.8781 159.001 57.942 158.64 57.9264V57.9547Z" fill="white"/>
<path d="M26.4446 34.2126L26.9964 34.0994C26.2626 32.8082 25.9002 31.3391 25.9494 29.8547C25.9494 25.8363 28.0718 22.9075 32.2033 22.9075C36.3348 22.9075 38.4713 25.8363 38.4713 29.8547C38.4563 30.5408 38.371 31.2235 38.2166 31.8922L39.8862 31.5384L43.5084 30.9583C43.5084 30.5904 43.5084 30.2226 43.5084 29.8547C43.5703 28.3391 43.3219 26.8269 42.7785 25.4107C42.235 23.9946 41.408 22.7044 40.3481 21.6193C39.2882 20.5342 38.0177 19.6771 36.6147 19.1006C35.2117 18.5241 33.7057 18.2403 32.1891 18.2666C30.672 18.2382 29.165 18.5206 27.7611 19.0964C26.3571 19.6722 25.0859 20.5293 24.0256 21.6148C22.9652 22.7003 22.1383 23.9913 21.5956 25.4084C21.0529 26.8255 20.8059 28.3386 20.8699 29.8547C20.8617 31.7068 21.2628 33.538 22.0442 35.2172C23.5016 34.9059 24.9731 34.538 26.4446 34.2126Z" fill="white"/>
<path d="M50.9509 29.8121C50.9509 25.8504 53.0874 22.9498 57.2048 22.9498C58.7179 22.8634 60.2049 23.3711 61.3492 24.3648C62.4935 25.3584 63.2047 26.7596 63.3313 28.2699C65.0151 28.0859 66.6847 27.9161 68.3684 27.7605C68.0261 25.287 66.8465 23.0054 65.0263 21.2959C63.2061 19.5864 60.8551 18.5522 58.365 18.3655L71.4529 4.99462V5.46154H76.3202V3.72121C95.3365 13.6256 125.333 13.6256 143.245 3.72121V5.46154H148.098V5.3625L159.771 18.6485H152.499V29.1471L157.31 29.7272V22.9215H161.144C165.389 22.9215 167.384 25.3127 167.384 29.9253C167.384 30.3639 167.384 30.7601 167.384 31.1563L172.364 31.9345C172.455 31.2686 172.503 30.5974 172.506 29.9253C172.506 23.1903 168.53 18.6909 161.724 18.606L148.113 3.24014V0.0990434H143.259V2.17896C125.856 12.0833 94.9121 12.0833 76.3343 2.17896V0H71.467V2.97131L56.3983 18.3514C53.4729 18.4945 50.7229 19.7887 48.7482 21.9516C46.7734 24.1146 45.7342 26.9708 45.8572 29.897C45.8572 30.1375 45.8572 30.3639 45.8572 30.6045C47.5693 30.3215 49.253 30.1234 50.9509 29.8121Z" fill="white"/>
<path d="M77.9897 27.0105C79.9895 26.8785 81.9845 26.7653 83.9748 26.671L91.0493 18.6484H85.3897L79.249 25.44L77.9897 27.0105Z" fill="white"/>
<path d="M117.621 26.4446C117.911 25.7902 118.056 25.0805 118.046 24.3647C118.046 21.167 116.051 18.7051 111.07 18.7051H99.9916V26.2324H104.802V22.9215H109.797C111.707 22.9215 112.952 23.5582 112.952 25.341C112.954 25.6578 112.907 25.9729 112.811 26.2748L117.621 26.4446Z" fill="white"/>
<path d="M140.33 27.8738C140.565 27.1663 140.684 26.426 140.684 25.6807C140.684 20.8984 137.105 18.6062 132.195 18.6062H121.696V26.558L126.507 26.8268V22.9217H131.997C134.091 22.9217 135.576 23.7282 135.576 25.9213C135.59 26.4559 135.458 26.9842 135.194 27.4494C136.949 27.5767 138.675 27.7324 140.33 27.8738Z" fill="white"/>
<path d="M180.585 33.3635C180.158 32.2582 179.947 31.0816 179.962 29.8969C179.962 25.7513 181.943 22.9214 186.131 22.9214C187.481 22.8363 188.817 23.2376 189.897 24.0526C190.977 24.8676 191.729 26.0425 192.017 27.3642L196.092 24.2656C194.508 20.5302 190.914 18.3088 186.188 18.3088C178.901 18.3088 174.869 23.1903 174.869 29.8969C174.868 30.7248 174.92 31.5518 175.024 32.373C176.878 32.6843 178.703 33.0239 180.585 33.3635Z" fill="white"/>
<path d="M191.565 35.4435C191.76 34.6406 191.878 33.821 191.918 32.9957L192.286 35.5992L196.262 36.4481V29.1189H185.452V32.9533H191.649C191.356 33.7561 190.92 34.4991 190.362 35.1464L191.565 35.4435Z" fill="white"/>
<path d="M204.723 36.9291V31.9486H214.557V27.7039H204.723V22.9215H216.495V18.6768H199.898V37.1979L203.181 37.9054C207.624 38.9665 212.052 40.0419 216.481 41.1596V36.9149L204.723 36.9291Z" fill="white"/>
<path d="M199.898 37.6222L196.262 36.9148L192.357 36.1507L191.423 35.9668L189.866 35.6697H189.753C186.839 35.1462 183.91 34.6934 180.981 34.2548L176.269 33.519C175.873 33.4483 175.477 33.4058 175.081 33.3492C174.104 33.1936 173.128 33.0662 172.152 32.9248C170.496 32.6984 168.841 32.4578 167.171 32.2456L162.729 31.5381C160.932 31.3118 159.135 31.1137 157.324 30.9156C155.513 30.7175 154.112 30.5619 152.513 30.4062C150.914 30.2506 149.683 30.1091 148.268 29.9817H148.183V28.7083H148.268V18.6483H148.183V7.04609H143.33V29.6846L139.708 29.4158C137.289 29.2318 134.855 29.0762 132.421 28.9347L126.634 28.6234L121.696 28.3404C119.843 28.3404 117.975 28.2131 116.121 28.1707C113.461 28.0999 110.801 28.0292 108.141 28.0009C105.481 27.9726 102.666 28.0009 99.9349 28.0009C94.5111 28.0763 89.1015 28.2414 83.7059 28.4961C81.2582 28.6093 78.8104 28.7366 76.3484 28.8923H76.2777V27.0529V6.97534H71.4528V27.4208V29.2318L68.623 29.4441L63.5435 29.8968C60.2609 30.2081 56.9783 30.5477 53.6392 30.9439C52.7761 31.0429 51.9271 31.1703 51.064 31.2835C49.3944 31.4957 47.7248 31.7079 46.0553 31.9485L43.3386 32.3446L40.0985 32.7974L37.8771 33.1653C34.4672 33.7171 31.0572 34.3114 27.6473 34.9056L26.6286 35.0754C25.2137 35.3442 23.7987 35.6414 22.4546 35.9385L18.7192 36.7167L13.2577 37.8769C8.81488 38.9098 4.41451 40.0276 0 41.1454C4.37207 39.8578 8.75828 38.5702 13.1586 37.3676L18.8183 35.9527C18.8572 35.7091 18.8808 35.4634 18.889 35.2169C18.889 32.0192 16.8657 29.7271 11.1495 29.5573C14.6443 29.3875 18.0825 28.1424 18.0825 24.2938C18.0825 21.0961 16.0875 18.6342 11.107 18.6342H0.0141494V41.2727H10.9655C14.616 41.2727 17.2902 40.2681 18.3514 37.9335L23.1762 37.1553C24.2267 38.5607 25.5979 39.6946 27.1756 40.4625C28.7532 41.2304 30.4916 41.6101 32.2458 41.5698C34.5232 41.6388 36.7652 40.9939 38.6579 39.7253C40.5506 38.4568 41.9992 36.6281 42.801 34.4953L46.5505 34.0708C47.3784 36.4551 48.9795 38.4943 51.0992 39.8644C53.219 41.2344 55.7358 41.8566 58.2498 41.6322C60.7638 41.4078 63.1306 40.3496 64.9742 38.6258C66.8178 36.902 68.0324 34.6115 68.4249 32.1183L71.4528 31.9202V40.7209H71.5236V41.3435H76.2777V34.8773L79.532 31.3401H79.9281L85.8 41.2444H91.3606L85.3048 31.1278C90.2004 30.958 95.096 30.8448 99.9915 30.8307V41.2444H110.929C115.711 41.2444 118.852 39.5465 118.852 35.3442C118.902 34.4659 118.709 33.5908 118.295 32.8147C117.881 32.0386 117.261 31.3914 116.504 30.9439C118.258 30.9439 119.998 31.0146 121.753 31.0712V41.2444H126.564V32.755H128.318C129.097 32.6552 129.888 32.7989 130.582 33.1662C131.276 33.5335 131.839 34.1064 132.195 34.8066L136.001 41.2161H141.505L137.925 35.3442C137.564 34.5874 137.047 33.9153 136.408 33.3717C135.769 32.828 135.023 32.4251 134.218 32.189C134.936 32.0958 135.642 31.9298 136.326 31.6938C138.619 31.8211 140.911 31.9626 143.203 32.1324V40.7067H143.316V41.2161H148.141V32.4861L152.386 32.8399V41.2161H161.512C166.563 41.2161 170.001 38.74 171.515 34.7217C172.817 34.8632 174.133 35.0047 175.434 35.1745C175.944 37.0216 177.057 38.6455 178.595 39.7887C180.133 40.9319 182.008 41.5289 183.924 41.4849C185.41 41.6226 186.902 41.2806 188.18 40.5091C189.458 39.7377 190.456 38.5772 191.027 37.1978L192.597 37.4242L193.121 41.1878H196.318V37.9901L199.955 38.5278V41.2161H216.495C212.052 40.1974 207.609 39.2117 203.167 38.259L199.898 37.6222ZM4.78239 22.9214H9.77701C11.6871 22.9214 12.9323 23.5581 12.9323 25.3408C12.9323 27.1236 11.7296 27.7745 9.83361 27.7745H4.78239V22.9214ZM4.78239 31.6372H10.2722C12.5644 31.6372 13.8802 32.4578 13.8802 34.2689C13.8802 36.08 12.7766 36.9289 10.2156 36.9289H4.78239V31.6372ZM32.2033 36.8299C31.1759 36.8449 30.159 36.6221 29.232 36.179L36.6178 35.1462C36.0357 35.713 35.3438 36.1549 34.5846 36.4444C33.8255 36.734 33.0151 36.8652 32.2033 36.8299ZM57.2047 36.8299C56.0377 36.9035 54.8765 36.6139 53.8808 36.0007C52.8851 35.3876 52.1037 34.4811 51.6441 33.4058L53.7806 33.1794C56.8793 32.8823 59.9779 32.6276 63.0907 32.3871C62.8026 33.7089 62.0504 34.8837 60.9707 35.6988C59.8909 36.5138 58.5549 36.9151 57.2047 36.8299ZM110.221 36.9289H104.802V31.6372H110.292C112.584 31.6372 113.9 32.4578 113.9 34.2689C113.9 36.08 112.782 36.9289 110.221 36.9289ZM161.229 36.9289H157.324V33.2643L162.488 33.7454L166.535 34.1699C166.017 35.0984 165.239 35.8547 164.295 36.3451C163.352 36.8355 162.286 37.0385 161.229 36.9289ZM185.99 36.9289C184.883 36.9497 183.791 36.6658 182.834 36.1083C184.433 36.3064 186.018 36.5328 187.617 36.745C187.083 36.8676 186.537 36.9293 185.99 36.9289Z" fill="white"/>
</svg>
